<svg width="111" height="23" viewBox="0 0 111 23" fill="none" xmlns="http://www.w3.org/2000/svg">
<path d="M16.3527 14.8515C16.3527 16.0649 16.1753 17.2129 15.8207 18.2955C15.466 19.3782 14.9713 20.2835 14.3367 21.0115C13.2913 22.2249 11.7887 22.8315 9.82866 22.8315C8.87666 22.8315 8.02732 22.6169 7.28066 22.1875C6.53399 21.7395 5.87132 20.9182 5.29266 19.7235L4.45266 22.5515H2.29666V2.81154L0.140655 2.27954V0.711543H5.85266V9.05554C6.41266 8.34621 7.03799 7.85154 7.72866 7.57154C8.41932 7.29154 9.19399 7.15154 10.0527 7.15154C11.0047 7.15154 11.8633 7.29154 12.6287 7.57154C13.4127 7.85154 14.0473 8.29954 14.5327 8.91554C15.1113 9.62488 15.5593 10.4929 15.8767 11.5195C16.194 12.5462 16.3527 13.6569 16.3527 14.8515ZM5.85266 14.9915C5.85266 16.1115 5.94599 17.0262 6.13266 17.7355C6.31932 18.4449 6.55266 19.0235 6.83266 19.4715C7.13132 19.9382 7.48599 20.3022 7.89666 20.5635C8.30732 20.8249 8.81132 20.9555 9.40866 20.9555C10.006 20.9555 10.4727 20.8342 10.8087 20.5915C11.1633 20.3302 11.462 20.0035 11.7047 19.6115C11.9847 19.1262 12.1993 18.5475 12.3487 17.8755C12.498 17.1849 12.5727 16.3542 12.5727 15.3835C12.5727 14.3195 12.4887 13.3769 12.3207 12.5555C12.1713 11.7155 11.9753 11.0342 11.7327 10.5115C11.5087 10.0262 11.21 9.66221 10.8367 9.41954C10.4633 9.15821 9.97799 9.02754 9.38066 9.02754C8.87666 9.02754 8.39132 9.12088 7.92466 9.30754C7.47666 9.49421 7.11266 9.83021 6.83266 10.3155C6.55266 10.8009 6.31932 11.4262 6.13266 12.1915C5.94599 12.9382 5.85266 13.8715 5.85266 14.9915ZM31.8992 14.9915C31.8992 16.1862 31.7219 17.3155 31.3672 18.3795C31.0312 19.4249 30.5366 20.3022 29.8832 21.0115C29.2672 21.6649 28.5206 22.1315 27.6432 22.4115C26.7846 22.6915 25.7766 22.8315 24.6192 22.8315C23.4619 22.8315 22.4446 22.6915 21.5672 22.4115C20.7086 22.1315 19.9712 21.6649 19.3552 21.0115C18.7019 20.3022 18.1979 19.4249 17.8432 18.3795C17.5072 17.3155 17.3392 16.1862 17.3392 14.9915C17.3392 13.7969 17.5072 12.6675 17.8432 11.6035C18.1979 10.5395 18.7019 9.66221 19.3552 8.97154C19.9712 8.31821 20.7086 7.85154 21.5672 7.57154C22.4446 7.29154 23.4619 7.15154 24.6192 7.15154C25.7766 7.15154 26.7846 7.29154 27.6432 7.57154C28.5206 7.85154 29.2672 8.31821 29.8832 8.97154C30.5366 9.66221 31.0312 10.5395 31.3672 11.6035C31.7219 12.6675 31.8992 13.7969 31.8992 14.9915ZM22.0712 19.8355C22.3326 20.2089 22.6686 20.4889 23.0792 20.6755C23.5086 20.8622 24.0219 20.9555 24.6192 20.9555C25.2166 20.9555 25.7299 20.8622 26.1592 20.6755C26.5886 20.4889 26.9246 20.2089 27.1672 19.8355C27.7646 18.9209 28.0632 17.3062 28.0632 14.9915C28.0632 13.8155 27.9886 12.8262 27.8392 12.0235C27.6899 11.2209 27.4659 10.5955 27.1672 10.1475C26.9246 9.77421 26.5886 9.49421 26.1592 9.30754C25.7299 9.12088 25.2166 9.02754 24.6192 9.02754C24.0219 9.02754 23.5086 9.12088 23.0792 9.30754C22.6686 9.49421 22.3326 9.77421 22.0712 10.1475C21.4739 11.0622 21.1752 12.6769 21.1752 14.9915C21.1752 17.3062 21.4739 18.9209 22.0712 19.8355ZM31.9482 9.25154V7.82354L34.6922 7.43154L35.0282 3.95954L38.2202 3.51154V7.43154H41.8042V9.25154H38.2202V18.4075C38.2202 19.0422 38.2296 19.4809 38.2482 19.7235C38.2669 19.9475 38.3042 20.1342 38.3602 20.2835C38.4162 20.3955 38.5189 20.4795 38.6682 20.5355C38.8176 20.5915 39.0602 20.6195 39.3962 20.6195H41.3562V21.8515C40.2736 22.1875 39.3122 22.4302 38.4722 22.5795C37.6509 22.7475 36.9976 22.8315 36.5122 22.8315C35.6722 22.8315 35.1309 22.4862 34.8882 21.7955C34.8136 21.5715 34.7576 21.2822 34.7202 20.9275C34.6829 20.5729 34.6642 20.0502 34.6642 19.3595V9.25154H31.9482ZM41.7548 19.2475C41.7548 17.6982 42.4641 16.5035 43.8828 15.6635C45.3014 14.8049 47.5321 14.1422 50.5748 13.6755C50.5001 12.7422 50.3974 12.0235 50.2668 11.5195C50.1361 11.0155 49.9681 10.5862 49.7628 10.2315C49.5201 9.80221 49.2214 9.45688 48.8668 9.19554C48.5121 8.93421 48.0641 8.80354 47.5228 8.80354C47.1308 8.80354 46.7668 8.87821 46.4308 9.02754C46.1134 9.17688 45.8988 9.38221 45.7868 9.64354C46.0481 9.77421 46.2254 9.97954 46.3188 10.2595C46.4308 10.5395 46.4868 10.7822 46.4868 10.9875C46.4868 11.4542 46.2814 11.8742 45.8708 12.2475C45.4601 12.6022 44.9654 12.7795 44.3868 12.7795C43.8081 12.7795 43.3508 12.5929 43.0148 12.2195C42.6788 11.8275 42.5108 11.3422 42.5108 10.7635C42.5108 9.99821 42.7814 9.34488 43.3228 8.80354C43.8641 8.26221 44.5548 7.85154 45.3948 7.57154C46.2348 7.29154 47.0841 7.15154 47.9428 7.15154C48.8201 7.15154 49.6041 7.28221 50.2948 7.54354C51.0041 7.78621 51.5734 8.09421 52.0028 8.46754C53.4774 9.77421 54.2148 11.8462 54.2148 14.6835V18.3235C54.2148 19.2382 54.2708 19.8729 54.3828 20.2275C54.5134 20.5822 54.7841 20.7595 55.1948 20.7595H56.4548V22.0195C54.7374 22.5609 53.4401 22.8315 52.5628 22.8315C51.9468 22.8315 51.5361 22.6262 51.3308 22.2155C51.1254 21.8049 51.0228 20.9929 51.0228 19.7795H50.9108C50.3321 20.7315 49.5668 21.4782 48.6148 22.0195C47.6628 22.5609 46.6361 22.8315 45.5348 22.8315C44.3588 22.8315 43.4348 22.5142 42.7628 21.8795C42.0908 21.2449 41.7548 20.3675 41.7548 19.2475ZM47.2428 20.7875C47.6348 20.7875 48.0641 20.6569 48.5308 20.3955C49.0161 20.1342 49.4361 19.7702 49.7908 19.3035C49.9961 19.0422 50.1921 18.6689 50.3788 18.1835C50.5654 17.6982 50.6588 17.1195 50.6588 16.4475C50.6588 16.2235 50.6494 15.9715 50.6308 15.6915C50.6121 15.4115 50.5841 15.1502 50.5468 14.9075C49.2588 15.1875 48.2414 15.4862 47.4948 15.8035C46.7668 16.1209 46.2441 16.5035 45.9268 16.9515C45.6281 17.3809 45.4788 17.9129 45.4788 18.5475C45.4788 19.3502 45.6654 19.9289 46.0388 20.2835C46.4121 20.6195 46.8134 20.7875 47.2428 20.7875ZM58.186 20.4515V9.53154L56.03 8.99954V7.43154H60.902L61.518 10.2315H61.63C62.19 9.27954 62.946 8.53288 63.898 7.99154C64.85 7.43154 65.8673 7.15154 66.95 7.15154C68.4993 7.15154 69.6473 7.65554 70.394 8.66354C70.7673 9.18621 71.0286 9.92354 71.178 10.8755C71.346 11.8089 71.43 13.0782 71.43 14.6835V20.4515L73.586 20.9835V22.5515H65.998V20.9835L67.874 20.4515V15.0475C67.874 13.9275 67.8366 13.0595 67.762 12.4435C67.706 11.8089 67.594 11.3049 67.426 10.9315C67.2206 10.4462 66.9406 10.1102 66.586 9.92354C66.2313 9.73688 65.8113 9.64354 65.326 9.64354C64.4113 9.64354 63.6366 9.94221 63.002 10.5395C62.2366 11.2489 61.8166 12.3409 61.742 13.8155V20.4515L63.618 20.9835V22.5515H56.03V20.9835L58.186 20.4515ZM75.9332 9.53154L73.7772 8.99954V7.43154H79.4892V20.4515L81.6452 20.9835V22.5515H73.7772V20.9835L75.9332 20.4515V9.53154ZM75.6252 3.17554C75.6252 2.57821 75.8025 2.09288 76.1572 1.71954C76.5305 1.34621 77.0438 1.15954 77.6972 1.15954C78.3505 1.15954 78.8638 1.34621 79.2372 1.71954C79.6105 2.09288 79.7972 2.57821 79.7972 3.17554C79.7972 3.75421 79.6105 4.23021 79.2372 4.60354C78.8825 4.97688 78.3692 5.16354 77.6972 5.16354C77.0252 5.16354 76.5118 4.98621 76.1572 4.63154C75.8025 4.25821 75.6252 3.77288 75.6252 3.17554ZM89.4587 7.15154C90.616 7.15154 91.6427 7.33821 92.5387 7.71154C93.4347 8.06621 94.1347 8.57021 94.6387 9.22354C95.1614 9.87688 95.4227 10.6422 95.4227 11.5195C95.4227 12.3595 95.1987 13.0035 94.7507 13.4515C94.3027 13.8809 93.752 14.0955 93.0987 14.0955C92.3707 14.0955 91.8574 13.8715 91.5587 13.4235C91.2787 12.9755 91.1387 12.5182 91.1387 12.0515C91.1387 11.5849 91.2507 11.1835 91.4747 10.8475C91.7174 10.4929 92.072 10.2502 92.5387 10.1195C92.296 9.78354 91.904 9.51288 91.3627 9.30754C90.84 9.10221 90.252 8.99954 89.5987 8.99954C88.4227 8.99954 87.508 9.42888 86.8547 10.2875C86.2014 11.1462 85.8747 12.6862 85.8747 14.9075C85.8747 15.9155 85.94 16.7089 86.0707 17.2875C86.2014 17.8662 86.3787 18.3702 86.6027 18.7995C86.9014 19.3409 87.284 19.7702 87.7507 20.0875C88.2174 20.3862 88.8147 20.5355 89.5427 20.5355C90.308 20.5355 91.1107 20.3582 91.9507 20.0035C92.8094 19.6302 93.5187 19.0609 94.0787 18.2955L95.5907 19.4715C94.732 20.6662 93.724 21.5249 92.5667 22.0475C91.4094 22.5702 90.1774 22.8315 88.8707 22.8315C87.4894 22.8315 86.3134 22.5702 85.3427 22.0475C84.3907 21.5062 83.644 20.7222 83.1027 19.6955C82.4307 18.4449 82.0947 16.9235 82.0947 15.1315C82.0947 13.5075 82.384 12.0982 82.9627 10.9035C83.56 9.70888 84.4094 8.78488 85.5107 8.13154C86.612 7.47821 87.928 7.15154 89.4587 7.15154ZM96.0638 19.2475C96.0638 17.6982 96.7732 16.5035 98.1918 15.6635C99.6105 14.8049 101.841 14.1422 104.884 13.6755C104.809 12.7422 104.707 12.0235 104.576 11.5195C104.445 11.0155 104.277 10.5862 104.072 10.2315C103.829 9.80221 103.531 9.45688 103.176 9.19554C102.821 8.93421 102.373 8.80354 101.832 8.80354C101.44 8.80354 101.076 8.87821 100.74 9.02754C100.423 9.17688 100.208 9.38221 100.096 9.64354C100.357 9.77421 100.535 9.97954 100.628 10.2595C100.74 10.5395 100.796 10.7822 100.796 10.9875C100.796 11.4542 100.591 11.8742 100.18 12.2475C99.7692 12.6022 99.2745 12.7795 98.6958 12.7795C98.1172 12.7795 97.6598 12.5929 97.3238 12.2195C96.9878 11.8275 96.8198 11.3422 96.8198 10.7635C96.8198 9.99821 97.0905 9.34488 97.6318 8.80354C98.1732 8.26221 98.8638 7.85154 99.7038 7.57154C100.544 7.29154 101.393 7.15154 102.252 7.15154C103.129 7.15154 103.913 7.28221 104.604 7.54354C105.313 7.78621 105.883 8.09421 106.312 8.46754C107.787 9.77421 108.524 11.8462 108.524 14.6835V18.3235C108.524 19.2382 108.58 19.8729 108.692 20.2275C108.823 20.5822 109.093 20.7595 109.504 20.7595H110.764V22.0195C109.047 22.5609 107.749 22.8315 106.872 22.8315C106.256 22.8315 105.845 22.6262 105.64 22.2155C105.435 21.8049 105.332 20.9929 105.332 19.7795H105.22C104.641 20.7315 103.876 21.4782 102.924 22.0195C101.972 22.5609 100.945 22.8315 99.8438 22.8315C98.6678 22.8315 97.7438 22.5142 97.0718 21.8795C96.3998 21.2449 96.0638 20.3675 96.0638 19.2475ZM101.552 20.7875C101.944 20.7875 102.373 20.6569 102.84 20.3955C103.325 20.1342 103.745 19.7702 104.1 19.3035C104.305 19.0422 104.501 18.6689 104.688 18.1835C104.875 17.6982 104.968 17.1195 104.968 16.4475C104.968 16.2235 104.959 15.9715 104.94 15.6915C104.921 15.4115 104.893 15.1502 104.856 14.9075C103.568 15.1875 102.551 15.4862 101.804 15.8035C101.076 16.1209 100.553 16.5035 100.236 16.9515C99.9372 17.3809 99.7878 17.9129 99.7878 18.5475C99.7878 19.3502 99.9745 19.9289 100.348 20.2835C100.721 20.6195 101.123 20.7875 101.552 20.7875Z" fill="#587F41"/>
</svg>
