<?xml version="1.0" encoding="UTF-8"?>
<svg id="_レイヤー_1" data-name="レイヤー 1" xmlns="http://www.w3.org/2000/svg" viewBox="0 0 130.27 130.26">
  <defs>
    <style>
      .cls-1 {
        font-family: TheSeasons-Regular, 'The Seasons';
        font-size: 19.61px;
      }
    </style>
  </defs>
  <text class="cls-1" transform="translate(53.01 17.81) rotate(-7.92)"><tspan x="0" y="0">S</tspan></text>
  <text class="cls-1" transform="translate(68.91 16.2) rotate(12.91)"><tspan x="0" y="0">C</tspan></text>
  <text class="cls-1" transform="translate(87.65 21.73) rotate(34.56)"><tspan x="0" y="0">R</tspan></text>
  <text class="cls-1" transform="translate(101.37 31.92) rotate(56.82)"><tspan x="0" y="0">O</tspan></text>
  <text class="cls-1" transform="translate(111.58 50.18) rotate(78.52)"><tspan x="0" y="0">L</tspan></text>
  <text class="cls-1" transform="translate(113.89 65.84) rotate(97.06)"><tspan x="0" y="0">L</tspan></text>
  <text class="cls-1" transform="translate(110.8 81.53) rotate(112.22)"><tspan x="0" y="0"> </tspan></text>
  <text class="cls-1" transform="translate(107.33 90.33) rotate(130.43)"><tspan x="0" y="0">M</tspan></text>
  <text class="cls-1" transform="translate(92.48 105.56) rotate(152.66)"><tspan x="0" y="0">E</tspan></text>
  <text class="cls-1" transform="translate(77.24 112.38) rotate(172.03)"><tspan x="0" y="0">S</tspan></text>
  <text class="cls-1" transform="translate(61.39 114) rotate(-167.18)"><tspan x="0" y="0">C</tspan></text>
  <text class="cls-1" transform="translate(42.64 108.51) rotate(-145.53)"><tspan x="0" y="0">R</tspan></text>
  <text class="cls-1" transform="translate(28.9 98.34) rotate(-123.27)"><tspan x="0" y="0">O</tspan></text>
  <text class="cls-1" transform="translate(18.66 80.09) rotate(-101.56)"><tspan x="0" y="0">L</tspan></text>
  <text class="cls-1" transform="translate(16.33 64.4) rotate(-82.98)"><tspan x="0" y="0">L</tspan></text>
  <text class="cls-1" transform="translate(19.4 48.71) rotate(-67.82)"><tspan x="0" y="0"> </tspan></text>
  <text class="cls-1" transform="translate(22.86 39.91) rotate(-49.63)"><tspan x="0" y="0">M</tspan></text>
  <text class="cls-1" transform="translate(37.68 24.68) rotate(-27.43)"><tspan x="0" y="0">E</tspan></text>
</svg>