<svg width="25" height="25" viewBox="0 0 25 25" fill="none" xmlns="http://www.w3.org/2000/svg">
<path d="M3.19666 6.55154L6.19666 2.55154H18.1967L21.1967 6.55154M3.19666 6.55154V20.5515C3.19666 21.082 3.40737 21.5907 3.78244 21.9658C4.15751 22.3408 4.66622 22.5515 5.19666 22.5515H19.1967C19.7271 22.5515 20.2358 22.3408 20.6109 21.9658C20.9859 21.5907 21.1967 21.082 21.1967 20.5515V6.55154M3.19666 6.55154H21.1967M16.1967 10.5515C16.1967 11.6124 15.7752 12.6298 15.0251 13.38C14.2749 14.1301 13.2575 14.5515 12.1967 14.5515C11.1358 14.5515 10.1184 14.1301 9.36823 13.38C8.61808 12.6298 8.19666 11.6124 8.19666 10.5515" stroke="#1F281B" stroke-width="1.5" stroke-linecap="round" stroke-linejoin="round"/>
</svg>
